<svg width="432" height="164" viewBox="0 0 432 164" fill="none" xmlns="http://www.w3.org/2000/svg">
<path d="M-15.4868 129.511C-23.9302 129.511 -31.3181 127.692 -37.6506 124.056C-43.8659 120.302 -48.6739 115.023 -52.0747 108.219C-55.3582 101.298 -57 93.1445 -57 83.7597C-57 74.3748 -55.3582 66.2804 -52.0747 59.4764C-48.6739 52.5551 -43.9245 47.2761 -37.8265 43.6395C-31.6113 39.8856 -24.3406 38.0086 -16.0145 38.0086C-10.972 38.0086 -6.57441 38.7711 -2.8218 40.2961C0.930801 41.7039 4.03843 43.7568 6.50107 46.4549V0H35.5251V128.103H6.50107V120.536C4.15569 123.469 1.04807 125.698 -2.8218 127.223C-6.69167 128.748 -10.9133 129.511 -15.4868 129.511ZM-10.3856 104.876C-6.75031 104.876 -3.52541 103.996 -0.710964 102.236C2.10349 100.476 4.27296 98.0129 5.79745 94.8455C7.32195 91.6781 8.0842 87.9828 8.0842 83.7597C8.0842 77.4249 6.3838 72.3219 2.98301 68.4506C-0.417789 64.5794 -4.874 62.6438 -10.3856 62.6438C-14.021 62.6438 -17.2459 63.5236 -20.0603 65.2833C-22.7575 67.0429 -24.8683 69.5064 -26.3928 72.6738C-27.9173 75.8412 -28.6796 79.5365 -28.6796 83.7597C-28.6796 90.0944 -27.0378 95.1974 -23.7543 99.0687C-20.3535 102.94 -15.8973 104.876 -10.3856 104.876Z" fill="white"/>
<path d="M85.7647 129.511C78.494 129.511 71.9856 128.22 66.2395 125.639C60.6105 122.941 56.1543 119.187 52.8708 114.378C49.5873 109.568 47.8282 103.996 47.5937 97.6609H72.0443C72.5133 100.828 73.9792 103.409 76.4418 105.403C79.0218 107.28 82.1294 108.219 85.7647 108.219C88.8137 108.219 91.2764 107.632 93.1526 106.459C95.1462 105.286 96.143 103.761 96.143 101.884C96.143 100.124 95.498 98.7754 94.2081 97.8369C92.9181 96.7811 91.335 96.0186 89.4587 95.5494C87.6996 94.9628 84.8852 94.3176 81.0153 93.6137C74.8001 92.5579 69.6402 91.3262 65.5358 89.9185C61.4314 88.3934 57.8547 85.7539 54.8057 82C51.7568 78.1288 50.2323 72.6738 50.2323 65.6352C50.2323 60.3562 51.6395 55.6638 54.4539 51.5579C57.2684 47.3348 61.0796 44.0501 65.8876 41.7039C70.8129 39.2403 76.2073 38.0086 82.0707 38.0086C89.3414 38.0086 95.7912 39.2403 101.42 41.7039C107.049 44.1674 111.447 47.628 114.613 52.0858C117.896 56.5436 119.655 61.7639 119.89 67.7468H95.2635C94.7944 64.814 93.4458 62.4092 91.2177 60.5322C88.9896 58.5379 86.3511 57.5408 83.3021 57.5408C80.4876 57.5408 78.2595 58.1273 76.6177 59.3004C74.976 60.4735 74.1551 62.1745 74.1551 64.4034C74.1551 66.2804 74.8001 67.7468 76.09 68.8026C77.38 69.7411 79.0218 70.4449 81.0153 70.9142C83.1262 71.3834 85.9993 71.8526 89.6346 72.3219C96.0844 73.1431 101.361 74.2575 105.466 75.6652C109.688 76.9557 113.323 79.5951 116.372 83.5837C119.538 87.4549 121.121 93.1445 121.121 100.652C121.121 106.401 119.655 111.445 116.724 115.785C113.792 120.126 109.629 123.528 104.235 125.991C98.9575 128.338 92.8008 129.511 85.7647 129.511Z" fill="white"/>
<path d="M143.253 141.828H184.063C186.995 141.828 189.399 140.714 191.275 138.485C193.151 136.373 194.089 133.675 194.089 130.391V120.536C191.744 123.352 188.578 125.581 184.591 127.223C180.721 128.748 176.499 129.511 171.926 129.511C163.482 129.511 156.094 127.692 149.762 124.056C143.547 120.302 138.739 115.023 135.338 108.219C132.054 101.298 130.413 93.1445 130.413 83.7597C130.413 74.3748 132.054 66.2804 135.338 59.4764C138.739 52.5551 143.488 47.2761 149.586 43.6395C155.801 39.8856 163.072 38.0086 171.398 38.0086C176.441 38.0086 180.838 38.7711 184.591 40.2961C188.343 41.7039 191.451 43.7568 193.914 46.4549V39.4163H222.938V133.91C222.938 140.01 221.53 145.289 218.716 149.747C216.019 154.322 212.09 157.841 206.93 160.305C201.888 162.768 196.024 164 189.34 164H143.253V141.828ZM177.027 104.876C180.662 104.876 183.887 103.996 186.702 102.236C189.516 100.476 191.685 98.0129 193.21 94.8455C194.734 91.6781 195.497 87.9828 195.497 83.7597C195.497 77.3076 193.796 72.2046 190.396 68.4506C187.112 64.5794 182.656 62.6438 177.027 62.6438C173.392 62.6438 170.167 63.5236 167.352 65.2833C164.655 67.0429 162.544 69.5064 161.02 72.6738C159.495 75.8412 158.733 79.5365 158.733 83.7597C158.733 90.2117 160.375 95.3734 163.658 99.2446C167.059 102.999 171.515 104.876 177.027 104.876Z" fill="white"/>
<path d="M239.756 39.4163H268.78V49.6223C271.36 46.103 274.936 43.2876 279.51 41.176C284.083 39.0644 289.184 38.0086 294.813 38.0086C301.263 38.0086 306.951 39.475 311.876 42.4077C316.919 45.3405 320.788 49.4464 323.486 54.7253C326.3 59.887 327.707 65.7525 327.707 72.3219V128.103H298.683V79.1846C298.683 74.7268 297.276 71.0315 294.462 68.0987C291.647 65.166 288.07 63.6996 283.731 63.6996C280.8 63.6996 278.22 64.4034 275.992 65.8112C273.764 67.1016 272.005 68.9199 270.715 71.2661C269.425 73.6123 268.78 76.2518 268.78 79.1846V128.103H239.756V39.4163Z" fill="white"/>
<path d="M388.01 63.3476C383.202 63.3476 379.45 65.1073 376.753 68.6266C374.055 72.1459 372.707 77.0143 372.707 83.2318V128.103H343.683V39.4163H372.707V52.7897C375.169 47.7453 378.043 44.2847 381.326 42.4077C384.727 40.4135 389.007 39.4163 394.167 39.4163H403.49V63.3476H388.01Z" fill="white"/>
<path d="M432 98.8927V128.103H401.041V98.8927H432Z" fill="white"/>
</svg>
