<svg width="318" height="240" viewBox="0 0 318 240" fill="none" xmlns="http://www.w3.org/2000/svg">
<g clip-path="url(#clip0_1_426)">
<path d="M164.675 103.583C164.675 105.961 162.772 107.877 160.41 107.877C158.049 107.877 156.146 105.961 156.146 103.583C156.146 101.204 157.983 99.2883 160.41 99.2883C162.838 99.3544 164.675 101.27 164.675 103.583ZM147.093 112.237C147.093 112.634 147.093 113.294 147.093 113.294C147.093 113.294 145.059 110.652 140.729 110.652C133.578 110.652 128.002 116.135 128.002 123.733C128.002 131.264 133.513 136.814 140.729 136.814C145.125 136.814 147.093 134.105 147.093 134.105V135.228C147.093 135.757 147.486 136.153 148.011 136.153H153.325V111.312C153.325 111.312 148.47 111.312 148.011 111.312C147.486 111.312 147.093 111.775 147.093 112.237ZM147.093 128.159C146.109 129.613 144.141 130.868 141.779 130.868C137.58 130.868 134.365 128.225 134.365 123.733C134.365 119.24 137.58 116.598 141.779 116.598C144.075 116.598 146.174 117.919 147.093 119.306V128.159ZM157.261 111.312H163.559V136.153H157.261V111.312ZM251.338 110.652C247.008 110.652 244.975 113.294 244.975 113.294V99.3544H238.677V136.153C238.677 136.153 243.531 136.153 243.991 136.153C244.515 136.153 244.909 135.691 244.909 135.228V134.105C244.909 134.105 246.943 136.814 251.273 136.814C258.424 136.814 264 131.264 264 123.733C264 116.201 258.424 110.652 251.338 110.652ZM250.289 130.802C247.861 130.802 245.959 129.547 244.975 128.093V119.24C245.959 117.919 248.058 116.532 250.289 116.532C254.487 116.532 257.702 119.174 257.702 123.667C257.702 128.159 254.487 130.802 250.289 130.802ZM235.396 121.42V136.219H229.098V122.147C229.098 118.051 227.786 116.399 224.244 116.399C222.341 116.399 220.373 117.39 219.126 118.844V136.153H212.828V111.312H217.814C218.339 111.312 218.733 111.775 218.733 112.237V113.294C220.57 111.378 222.997 110.652 225.425 110.652C228.18 110.652 230.476 111.444 232.313 113.03C234.544 114.88 235.396 117.258 235.396 121.42ZM197.543 110.652C193.213 110.652 191.179 113.294 191.179 113.294V99.3544H184.881V136.153C184.881 136.153 189.736 136.153 190.195 136.153C190.72 136.153 191.113 135.691 191.113 135.228V134.105C191.113 134.105 193.147 136.814 197.477 136.814C204.628 136.814 210.204 131.264 210.204 123.733C210.27 116.201 204.693 110.652 197.543 110.652ZM196.493 130.802C194.066 130.802 192.163 129.547 191.179 128.093V119.24C192.163 117.919 194.262 116.532 196.493 116.532C200.692 116.532 203.906 119.174 203.906 123.667C203.906 128.159 200.692 130.802 196.493 130.802ZM179.436 110.652C181.338 110.652 182.322 110.982 182.322 110.982V116.862C182.322 116.862 177.074 115.078 173.794 118.844V136.219H167.496V111.312C167.496 111.312 172.35 111.312 172.81 111.312C173.335 111.312 173.728 111.775 173.728 112.237V113.294C174.909 111.907 177.468 110.652 179.436 110.652ZM114.028 133.907C113.7 133.114 113.372 132.255 113.044 131.529C112.519 130.339 111.994 129.216 111.535 128.159L111.47 128.093C106.943 118.183 102.088 108.141 96.9709 98.2312L96.7741 97.8348C96.2493 96.8438 95.7244 95.7868 95.1996 94.7297C94.5436 93.5405 93.8875 92.2853 92.8378 91.0961C90.7385 88.4535 87.7207 87 84.5061 87C81.2258 87 78.2736 88.4535 76.1087 90.964C75.1246 92.1532 74.403 93.4084 73.7469 94.5976C73.2221 95.6547 72.6973 96.7117 72.1724 97.7027L71.9756 98.0991C66.9241 108.009 62.0037 118.051 57.477 127.961L57.4114 128.093C56.9522 129.15 56.4273 130.273 55.9025 131.462C55.5745 132.189 55.2465 132.982 54.9184 133.841C54.0656 136.285 53.8032 138.598 54.1312 140.976C54.8528 145.931 58.1331 150.093 62.6598 151.943C64.3655 152.67 66.1368 153 67.9737 153C68.4986 153 69.1546 152.934 69.6794 152.868C71.8444 152.604 74.075 151.877 76.2399 150.622C78.9297 149.102 81.4883 146.922 84.3749 143.751C87.2615 146.922 89.8856 149.102 92.5098 150.622C94.6748 151.877 96.9053 152.604 99.0703 152.868C99.5951 152.934 100.251 153 100.776 153C102.613 153 104.45 152.67 106.09 151.943C110.682 150.093 113.897 145.865 114.619 140.976C115.143 138.664 114.881 136.351 114.028 133.907ZM84.4405 137.342C80.8978 132.85 78.6017 128.622 77.8144 125.054C77.4864 123.535 77.4208 122.213 77.6176 121.024C77.7488 119.967 78.1424 119.042 78.6673 118.249C79.9137 116.465 82.0131 115.342 84.4405 115.342C86.8678 115.342 89.0328 116.399 90.2137 118.249C90.7385 119.042 91.1321 119.967 91.2633 121.024C91.4601 122.213 91.3945 123.601 91.0665 125.054C90.2793 128.556 87.9831 132.784 84.4405 137.342ZM110.617 140.447C110.157 143.883 107.861 146.856 104.647 148.177C103.072 148.838 101.366 149.036 99.6607 148.838C98.0206 148.64 96.3805 148.111 94.6748 147.12C92.313 145.799 89.9512 143.751 87.1959 140.712C91.5257 135.36 94.1499 130.471 95.134 126.111C95.5932 124.063 95.6588 122.213 95.462 120.495C95.1996 118.844 94.6092 117.324 93.6907 116.003C91.657 113.03 88.2455 111.312 84.4405 111.312C80.6354 111.312 77.224 113.096 75.1902 116.003C74.2718 117.324 73.6813 118.844 73.4189 120.495C73.1565 122.213 73.2221 124.129 73.7469 126.111C74.731 130.471 77.4208 135.426 81.6851 140.778C78.9953 143.817 76.5679 145.865 74.2062 147.186C72.5004 148.177 70.8603 148.706 69.2202 148.904C67.4489 149.102 65.7432 148.838 64.2343 148.243C61.0197 146.922 58.7235 143.949 58.2643 140.514C58.0675 138.862 58.1987 137.21 58.8547 135.36C59.0515 134.7 59.3795 134.039 59.7076 133.246C60.1668 132.189 60.6916 131.066 61.2165 129.943L61.2821 129.811C65.8088 119.967 70.6635 109.925 75.7151 100.147L75.9119 99.7507C76.4367 98.7598 76.9615 97.7027 77.4864 96.7117C78.0112 95.6547 78.6017 94.6637 79.3233 93.8048C80.701 92.2192 82.5379 91.3604 84.5717 91.3604C86.6054 91.3604 88.4423 92.2192 89.82 93.8048C90.5417 94.6637 91.1321 95.6547 91.657 96.7117C92.1818 97.7027 92.7066 98.7598 93.2315 99.7507L93.4283 100.147C98.4142 109.991 103.269 120.033 107.796 129.877V129.943C108.32 131 108.78 132.189 109.305 133.246C109.633 134.039 109.961 134.7 110.157 135.36C110.682 137.078 110.879 138.73 110.617 140.447Z" fill="#101010"/>
</g>
<defs>
<clipPath id="clip0_1_426">
<rect width="210" height="66" fill="white" transform="translate(54 87)"/>
</clipPath>
</defs>
</svg>
