<svg width="318" height="240" viewBox="0 0 318 240" fill="none" xmlns="http://www.w3.org/2000/svg">
<path d="M50 128.83H79.4812L77.8706 131.045H50V128.83Z" fill="#101010"/>
<path d="M50 124.724H82.4764L80.8626 126.934H50V124.724Z" fill="#101010"/>
<path d="M50 132.941H76.4881L74.8843 135.14H50V132.941Z" fill="#101010"/>
<path d="M268 131.045H238.635L240.244 128.832H268V131.045Z" fill="#101010"/>
<path d="M268 135.14L235.648 135.142L237.251 132.941H268V135.14Z" fill="#101010"/>
<path d="M243.236 124.724H268V126.936L241.625 126.937L243.236 124.724Z" fill="#101010"/>
<path d="M78.5542 135.14L92.5439 115.94H109.904C111.823 115.94 111.798 116.676 110.861 117.959C109.908 119.263 108.288 121.504 107.318 122.827C106.825 123.499 105.935 124.723 108.885 124.723H132.142C130.208 127.4 123.933 135.14 112.668 135.14H78.5542Z" fill="#101010"/>
<path d="M158.673 124.722L151.087 135.139H131.075C131.075 135.139 138.657 124.723 138.664 124.723L158.673 124.722Z" fill="#101010"/>
<path d="M187.611 124.723L180.021 135.14H160.017C160.017 135.14 167.6 124.723 167.607 124.723H187.611Z" fill="#101010"/>
<path d="M194.119 124.723C194.12 124.723 192.657 126.743 191.947 127.712C189.434 131.143 191.655 135.139 199.856 135.139H231.984L239.572 124.722L194.119 124.723Z" fill="#101010"/>
<path d="M88.3374 104L81.3724 113.559H119.332C121.251 113.559 121.226 114.295 120.288 115.579C119.335 116.88 117.741 119.147 116.772 120.47C116.279 121.141 115.389 122.366 118.339 122.366H133.862C133.862 122.366 136.364 118.926 138.461 116.051C141.314 112.139 138.708 104 128.508 104H88.3374Z" fill="#101010"/>
<path d="M189.33 122.366H140.383L153.768 104H173.773L166.103 114.53H175.032L182.708 104H202.71L189.33 122.366Z" fill="#101010"/>
<path d="M230.415 104L217.034 122.366H195.835C195.835 122.366 209.221 104 209.228 104H230.415Z" fill="#101010"/>
</svg>
