<svg width="318" height="240" viewBox="0 0 318 240" fill="none" xmlns="http://www.w3.org/2000/svg">
<g clip-path="url(#clip0_1_466)">
<path d="M76.056 106.892L63.528 114.785L76.056 122.677L63.528 130.569L51 122.634L63.528 114.742L51 106.892L63.528 99L76.056 106.892ZM63.4632 133.108L75.9912 125.215L88.5192 133.108L75.9912 141L63.4632 133.108ZM76.056 122.634L88.584 114.742L76.056 106.892L88.5192 99L101.047 106.892L88.5192 114.785L101.047 122.677L88.5192 130.569L76.056 122.634Z" fill="#101010"/>
<path d="M110.875 106.892H121.006C127.464 106.892 132.799 110.583 132.799 119.008V120.779C132.799 129.268 127.81 133.086 121.2 133.086H110.875V106.892ZM116.534 111.649V128.308H120.876C124.548 128.308 127.01 125.941 127.01 120.672V119.285C127.01 114.017 124.418 111.649 120.682 111.649H116.534ZM135.802 111.905H140.338L141.072 116.832C141.936 113.484 144.139 111.692 148.135 111.692H149.539V117.344H147.206C142.606 117.344 141.482 118.923 141.482 123.402V133.15H135.888V111.905H135.802ZM150.662 122.954V122.357C150.662 115.254 155.263 111.372 161.527 111.372C167.921 111.372 172.392 115.254 172.392 122.357V122.954C172.392 129.929 168.05 133.684 161.527 133.684C154.594 133.62 150.662 129.951 150.662 122.954ZM166.668 122.89V122.357C166.668 118.411 164.659 116.043 161.462 116.043C158.33 116.043 156.257 118.219 156.257 122.357V122.89C156.257 126.709 158.266 128.884 161.462 128.884C164.659 128.82 166.668 126.709 166.668 122.89ZM175.33 111.905H179.995L180.535 115.915C181.658 113.228 184.056 111.372 187.598 111.372C193.063 111.372 196.67 115.254 196.67 122.442V123.04C196.67 130.015 192.674 133.705 187.598 133.705C184.207 133.705 181.874 132.19 180.73 129.759V140.488H175.265L175.33 111.905ZM190.99 122.89V122.421C190.99 118.198 188.786 116.107 185.849 116.107C182.717 116.107 180.643 118.475 180.643 122.421V122.826C180.643 126.581 182.652 128.948 185.784 128.948C189.002 128.884 190.99 126.858 190.99 122.89ZM204.943 129.226L204.468 133.108H199.673V104.802H205.138V115.659C206.347 112.886 208.745 111.372 212.136 111.372C217.277 111.436 221.078 114.934 221.078 121.973V122.634C221.078 129.673 217.471 133.705 212.006 133.705C208.399 133.62 206.066 131.977 204.943 129.226ZM215.333 122.634V122.101C215.333 118.219 213.194 116.043 210.192 116.043C207.125 116.043 204.986 118.475 204.986 122.165V122.634C204.986 126.581 207.06 128.884 210.127 128.884C213.41 128.884 215.333 126.858 215.333 122.634ZM223.476 122.954V122.357C223.476 115.254 228.077 111.372 234.341 111.372C240.734 111.372 245.206 115.254 245.206 122.357V122.954C245.206 129.929 240.799 133.684 234.341 133.684C227.407 133.62 223.476 129.951 223.476 122.954ZM239.525 122.89V122.357C239.525 118.411 237.516 116.043 234.319 116.043C231.187 116.043 229.114 118.219 229.114 122.357V122.89C229.114 126.709 231.122 128.884 234.319 128.884C237.538 128.82 239.525 126.709 239.525 122.89ZM252.528 122.101L244.99 111.905H251.448L255.79 118.283L260.196 111.905H266.59L258.943 122.037L267 133.108H260.671L255.746 126.069L250.951 133.108H244.342L252.528 122.101Z" fill="#101010"/>
</g>
<defs>
<clipPath id="clip0_1_466">
<rect width="216" height="42" fill="white" transform="translate(51 99)"/>
</clipPath>
</defs>
</svg>
