<svg width="318" height="240" viewBox="0 0 318 240" fill="none" xmlns="http://www.w3.org/2000/svg">
<g clip-path="url(#clip0_1_472)">
<path d="M92.391 111.982V117.964H106.849C106.465 121.273 105.314 123.818 103.523 125.473C101.475 127.509 98.1487 129.8 92.391 129.8C83.5625 129.8 76.6533 122.673 76.6533 113.891C76.6533 105.109 83.4346 97.9818 92.391 97.9818C97.1251 97.9818 100.708 99.8909 103.267 102.309L107.489 98.1091C103.906 94.6727 99.0443 92 92.391 92C80.2359 92 70 101.8 70 113.891C70 125.982 80.2359 135.782 92.391 135.782C98.9164 135.782 103.906 133.618 107.745 129.673C111.711 125.727 112.991 120.127 112.991 115.673C112.991 114.273 112.863 113 112.735 111.982H92.391Z" fill="#101010"/>
<path d="M130.903 107.018C123.099 107.018 116.573 113 116.573 121.145C116.573 129.291 122.971 135.273 130.903 135.273C138.836 135.273 145.234 129.418 145.234 121.273C145.234 113 138.836 107.018 130.903 107.018ZM130.903 129.8C126.553 129.8 122.843 126.236 122.843 121.273C122.843 116.182 126.553 112.745 130.903 112.745C135.254 112.745 138.964 116.182 138.964 121.273C138.964 126.236 135.254 129.8 130.903 129.8Z" fill="#101010"/>
<path d="M200.891 110.2H200.635C199.228 108.545 196.541 107.018 193.086 107.018C185.921 107.018 179.78 113.127 179.78 121.145C179.78 129.036 185.921 135.273 193.086 135.273C196.541 135.273 199.228 133.745 200.635 132.091H200.891V134.127C200.891 139.473 197.948 142.4 193.342 142.4C189.504 142.4 187.201 139.727 186.177 137.309L180.803 139.6C182.339 143.291 186.561 148 193.47 148C200.763 148 207.033 143.673 207.033 133.236V107.782H201.147V110.2H200.891ZM193.726 129.8C189.376 129.8 186.177 126.109 186.177 121.273C186.177 116.309 189.504 112.745 193.726 112.745C197.948 112.745 201.275 116.436 201.275 121.4C201.403 126.236 198.076 129.8 193.726 129.8Z" fill="#101010"/>
<path d="M162.763 107.018C154.958 107.018 148.432 113 148.432 121.145C148.432 129.291 154.83 135.273 162.763 135.273C170.696 135.273 177.093 129.418 177.093 121.273C177.093 113 170.696 107.018 162.763 107.018ZM162.763 129.8C158.412 129.8 154.702 126.236 154.702 121.273C154.702 116.182 158.412 112.745 162.763 112.745C167.113 112.745 170.823 116.182 170.823 121.273C170.823 126.236 167.113 129.8 162.763 129.8Z" fill="#101010"/>
<path d="M211.767 92.6364H217.908V135.4H211.767V92.6364Z" fill="#101010"/>
<path d="M236.845 129.8C233.646 129.8 231.471 128.4 229.936 125.473L249 117.709L248.36 116.055C247.209 112.873 243.498 107.018 236.205 107.018C228.912 107.018 222.771 112.745 222.771 121.145C222.771 129.036 228.784 135.273 236.845 135.273C243.37 135.273 247.081 131.327 248.744 129.036L243.882 125.855C242.219 128.273 240.044 129.8 236.845 129.8ZM236.461 112.364C239.02 112.364 241.195 113.636 241.835 115.418L229.04 120.764C228.912 114.909 233.262 112.364 236.461 112.364Z" fill="#101010"/>
</g>
<defs>
<clipPath id="clip0_1_472">
<rect width="179" height="56" fill="white" transform="translate(70 92)"/>
</clipPath>
</defs>
</svg>
