<svg width="318" height="240" viewBox="0 0 318 240" fill="none" xmlns="http://www.w3.org/2000/svg">
<path d="M233.732 114.049C235.967 114.049 237.778 112.239 237.778 110.006C237.778 107.773 235.967 105.963 233.732 105.963C231.497 105.963 229.686 107.773 229.686 110.006C229.686 112.239 231.497 114.049 233.732 114.049Z" fill="#101010"/>
<path d="M175.938 127.245C177.923 127.245 179.068 125.757 178.992 124.308C178.954 123.545 178.877 123.049 178.801 122.668C177.58 117.405 173.304 113.515 168.227 113.515C162.196 113.515 157.31 118.969 157.31 125.681C157.31 132.393 162.196 137.847 168.227 137.847C172.006 137.847 174.717 136.474 176.663 134.3C177.618 133.232 177.427 131.592 176.282 130.792C175.327 130.143 174.144 130.372 173.266 131.097C172.426 131.821 170.823 133.271 168.227 133.271C165.173 133.271 162.578 130.639 162.005 127.168H175.938V127.245ZM168.189 118.13C170.937 118.13 173.304 120.265 174.182 123.202H162.196C163.074 120.227 165.441 118.13 168.189 118.13Z" fill="#101010"/>
<path d="M157.539 115.917C157.539 114.773 156.699 113.858 155.63 113.667C152.309 113.171 149.179 114.392 147.385 116.642V116.337C147.385 114.926 146.24 114.048 145.094 114.048C143.835 114.048 142.804 115.078 142.804 116.337V135.025C142.804 136.245 143.72 137.313 144.942 137.389C146.278 137.465 147.385 136.436 147.385 135.101V125.452C147.385 121.18 150.591 117.672 155.019 118.167C155.172 118.167 155.325 118.167 155.477 118.167C156.623 118.091 157.539 117.1 157.539 115.917Z" fill="#101010"/>
<path d="M236.023 118.358C236.023 117.1 234.992 116.07 233.732 116.07C232.473 116.07 231.442 117.1 231.442 118.358C231.442 118.435 231.442 134.377 231.442 135.101C231.442 136.36 232.473 137.39 233.732 137.39C234.992 137.39 236.023 136.36 236.023 135.101C236.023 134.415 236.023 118.473 236.023 118.358Z" fill="#101010"/>
<path d="M201.972 105.696C201.972 104.438 200.942 103.408 199.682 103.408C198.422 103.408 197.391 104.438 197.391 105.696V115.879C195.826 114.316 193.88 113.553 191.551 113.553C185.52 113.553 180.633 119.007 180.633 125.719C180.633 132.431 185.52 137.885 191.551 137.885C193.88 137.885 195.865 137.084 197.43 135.521C197.62 136.588 198.575 137.389 199.682 137.389C200.942 137.389 201.972 136.36 201.972 135.101V105.696ZM191.589 133.347C188.077 133.347 185.252 129.952 185.252 125.719C185.252 121.524 188.077 118.091 191.589 118.091C195.101 118.091 197.926 121.486 197.926 125.719C197.926 129.952 195.063 133.347 191.589 133.347Z" fill="#101010"/>
<path d="M225.868 105.696C225.868 104.438 224.838 103.408 223.578 103.408C222.318 103.408 221.287 104.438 221.287 105.696V115.879C219.722 114.315 217.776 113.553 215.447 113.553C209.416 113.553 204.53 119.006 204.53 125.719C204.53 132.431 209.416 137.885 215.447 137.885C217.776 137.885 219.761 137.084 221.326 135.52C221.517 136.588 222.471 137.389 223.578 137.389C224.838 137.389 225.868 136.359 225.868 135.101V105.696ZM215.447 133.347C211.935 133.347 209.11 129.952 209.11 125.719C209.11 121.524 211.935 118.091 215.447 118.091C218.959 118.091 221.784 121.485 221.784 125.719C221.784 129.952 218.959 133.347 215.447 133.347Z" fill="#101010"/>
<path d="M247.627 135.139V118.129H249.65C250.719 118.129 251.673 117.329 251.75 116.222C251.826 115.04 250.872 114.049 249.727 114.049H247.627V110.845C247.627 109.625 246.711 108.557 245.489 108.48C244.153 108.404 243.046 109.434 243.046 110.769V114.087H241.138C240.069 114.087 239.115 114.888 239.038 115.994C238.962 117.176 239.916 118.168 241.061 118.168H243.008V135.177C243.008 136.436 244.039 137.466 245.299 137.466C246.635 137.389 247.627 136.398 247.627 135.139Z" fill="#101010"/>
<path d="M97.989 151.92C115.656 151.92 129.978 137.611 129.978 119.96C129.978 102.309 115.656 88 97.989 88C80.322 88 66 102.309 66 119.96C66 137.611 80.322 151.92 97.989 151.92Z" fill="#101010"/>
<path d="M119.328 119.96C119.328 117.366 117.228 115.307 114.671 115.307C113.411 115.307 112.266 115.803 111.426 116.604C108.219 114.315 103.83 112.828 98.9434 112.637L101.081 102.645L108.029 104.132C108.105 105.887 109.555 107.298 111.35 107.298C113.182 107.298 114.671 105.81 114.671 103.98C114.671 102.149 113.182 100.662 111.35 100.662C110.052 100.662 108.907 101.424 108.372 102.53L100.623 100.891C100.394 100.852 100.165 100.891 100.012 101.005C99.8213 101.119 99.7068 101.31 99.6686 101.539L97.3019 112.675C92.3394 112.828 87.8732 114.315 84.6285 116.642C83.7887 115.841 82.6435 115.345 81.3838 115.345C78.788 115.345 76.7267 117.443 76.7267 119.998C76.7267 121.905 77.8718 123.507 79.4751 124.231C79.3988 124.689 79.3606 125.147 79.3606 125.642C79.3606 132.812 87.7205 138.648 98.0272 138.648C108.334 138.648 116.694 132.851 116.694 125.642C116.694 125.185 116.656 124.689 116.579 124.231C118.183 123.507 119.328 121.867 119.328 119.96ZM87.3388 123.278C87.3388 121.447 88.8275 119.96 90.6598 119.96C92.4921 119.96 93.9809 121.447 93.9809 123.278C93.9809 125.108 92.4921 126.596 90.6598 126.596C88.8275 126.634 87.3388 125.108 87.3388 123.278ZM105.929 132.088C103.639 134.376 99.2869 134.529 98.0272 134.529C96.7293 134.529 92.3776 134.338 90.1254 132.088C89.7818 131.745 89.7818 131.211 90.1254 130.867C90.4689 130.524 91.0034 130.524 91.3469 130.867C92.7975 132.317 95.8513 132.812 98.0272 132.812C100.203 132.812 103.295 132.317 104.707 130.867C105.051 130.524 105.585 130.524 105.929 130.867C106.234 131.211 106.234 131.745 105.929 132.088ZM105.318 126.634C103.486 126.634 101.997 125.147 101.997 123.316C101.997 121.485 103.486 119.998 105.318 119.998C107.151 119.998 108.639 121.485 108.639 123.316C108.639 125.108 107.151 126.634 105.318 126.634Z" fill="white"/>
</svg>
