<svg width="318" height="240" viewBox="0 0 318 240" fill="none" xmlns="http://www.w3.org/2000/svg">
<path d="M104.291 115.776C94.1049 109.721 77.3039 109.164 67.5804 112.118C66.0189 112.592 64.3678 111.71 63.8946 110.147C63.4215 108.583 64.302 106.931 65.8646 106.456C77.0265 103.063 95.5814 103.719 107.307 110.687C108.712 111.522 109.173 113.338 108.34 114.742C107.507 116.147 105.692 116.611 104.291 115.776ZM103.957 124.745C103.243 125.906 101.727 126.27 100.569 125.558C92.0767 120.332 79.1277 118.818 69.0813 121.871C67.7785 122.265 66.4024 121.53 66.0068 120.228C65.6141 118.924 66.349 117.549 67.6495 117.152C79.1263 113.666 93.3932 115.354 103.146 121.355C104.304 122.069 104.669 123.587 103.957 124.745ZM100.09 133.359C99.523 134.291 98.3102 134.584 97.3827 134.016C89.9623 129.475 80.6226 128.45 69.6234 130.965C68.5633 131.209 67.5071 130.543 67.2652 129.483C67.0225 128.421 67.6842 127.364 68.7466 127.122C80.7833 124.367 91.1085 125.553 99.4373 130.648C100.366 131.216 100.658 132.43 100.09 133.359ZM85.599 87.7321C68.1477 87.7321 54 101.895 54 119.365C54 136.838 68.1477 151 85.599 151C103.051 151 117.198 136.838 117.198 119.365C117.198 101.895 103.051 87.7321 85.599 87.7321Z" fill="#101010"/>
<path d="M139.97 116.935C134.514 115.633 133.542 114.719 133.542 112.798C133.542 110.983 135.249 109.762 137.787 109.762C140.248 109.762 142.687 110.69 145.245 112.599C145.322 112.657 145.419 112.68 145.514 112.665C145.61 112.65 145.694 112.598 145.75 112.519L148.414 108.759C148.524 108.605 148.494 108.391 148.346 108.273C145.302 105.828 141.875 104.639 137.868 104.639C131.977 104.639 127.862 108.178 127.862 113.242C127.862 118.672 131.412 120.595 137.546 122.079C142.767 123.283 143.648 124.291 143.648 126.094C143.648 128.092 141.866 129.334 138.999 129.334C135.814 129.334 133.216 128.26 130.311 125.741C130.238 125.679 130.14 125.651 130.048 125.656C129.952 125.664 129.865 125.708 129.803 125.782L126.816 129.341C126.691 129.488 126.707 129.709 126.852 129.837C130.233 132.858 134.391 134.455 138.878 134.455C145.226 134.455 149.328 130.982 149.328 125.608C149.328 121.066 146.617 118.554 139.97 116.935Z" fill="#101010"/>
<path d="M168.297 123.023C168.297 126.858 165.937 129.535 162.558 129.535C159.218 129.535 156.698 126.737 156.698 123.023C156.698 119.31 159.218 116.512 162.558 116.512C165.883 116.512 168.297 119.249 168.297 123.023ZM163.689 111.549C160.938 111.549 158.681 112.634 156.82 114.857V112.355C156.82 112.157 156.66 111.996 156.463 111.996H151.578C151.38 111.996 151.221 112.157 151.221 112.355V140.158C151.221 140.355 151.38 140.516 151.578 140.516H156.463C156.66 140.516 156.82 140.355 156.82 140.158V131.382C158.681 133.473 160.938 134.495 163.689 134.495C168.802 134.495 173.977 130.555 173.977 123.023C173.977 115.49 168.802 111.549 163.689 111.549Z" fill="#101010"/>
<path d="M187.243 129.575C183.741 129.575 181.101 126.758 181.101 123.023C181.101 119.272 183.65 116.551 187.163 116.551C190.687 116.551 193.345 119.367 193.345 123.105C193.345 126.855 190.779 129.575 187.243 129.575ZM187.243 111.549C180.659 111.549 175.501 116.624 175.501 123.105C175.501 129.515 180.624 134.537 187.163 134.537C193.77 134.537 198.944 129.479 198.944 123.023C198.944 116.589 193.806 111.549 187.243 111.549Z" fill="#101010"/>
<path d="M213.004 111.996H207.628V106.493C207.628 106.296 207.469 106.135 207.272 106.135H202.387C202.189 106.135 202.029 106.296 202.029 106.493V111.996H199.68C199.483 111.996 199.324 112.157 199.324 112.354V116.557C199.324 116.755 199.483 116.916 199.68 116.916H202.029V127.792C202.029 132.187 204.214 134.415 208.523 134.415C210.276 134.415 211.729 134.053 213.1 133.275C213.211 133.213 213.28 133.093 213.28 132.965V128.963C213.28 128.839 213.216 128.723 213.111 128.658C213.004 128.591 212.872 128.587 212.763 128.641C211.822 129.115 210.912 129.334 209.895 129.334C208.328 129.334 207.628 128.622 207.628 127.025V116.916H213.004C213.201 116.916 213.36 116.755 213.36 116.557V112.354C213.36 112.157 213.201 111.996 213.004 111.996Z" fill="#101010"/>
<path d="M231.734 112.017V111.342C231.734 109.353 232.495 108.467 234.203 108.467C235.221 108.467 236.039 108.669 236.955 108.975C237.068 109.011 237.186 108.993 237.278 108.925C237.372 108.858 237.425 108.749 237.425 108.635V104.513C237.425 104.356 237.324 104.216 237.173 104.17C236.205 103.882 234.967 103.586 233.112 103.586C228.6 103.586 226.215 106.13 226.215 110.94V111.975H223.868C223.671 111.975 223.51 112.135 223.51 112.333V116.557C223.51 116.755 223.671 116.916 223.868 116.916H226.215V133.691C226.215 133.889 226.374 134.05 226.571 134.05H231.456C231.654 134.05 231.814 133.889 231.814 133.691V116.916H236.376L243.363 133.687C242.569 135.449 241.789 135.8 240.725 135.8C239.864 135.8 238.958 135.542 238.031 135.035C237.944 134.987 237.841 134.979 237.746 135.008C237.653 135.041 237.575 135.11 237.535 135.201L235.879 138.838C235.8 139.01 235.868 139.212 236.033 139.301C237.761 140.238 239.322 140.638 241.25 140.638C244.858 140.638 246.851 138.955 248.609 134.43L257.085 112.505C257.127 112.395 257.114 112.271 257.047 112.173C256.98 112.076 256.871 112.017 256.753 112.017H251.667C251.515 112.017 251.379 112.114 251.329 112.257L246.119 127.155L240.413 112.247C240.36 112.109 240.227 112.017 240.079 112.017H231.734Z" fill="#101010"/>
<path d="M220.876 111.996H215.99C215.793 111.996 215.633 112.157 215.633 112.354V133.692C215.633 133.889 215.793 134.05 215.99 134.05H220.876C221.073 134.05 221.233 133.889 221.233 133.692V112.354C221.233 112.157 221.073 111.996 220.876 111.996Z" fill="#101010"/>
<path d="M218.458 102.281C216.523 102.281 214.952 103.849 214.952 105.786C214.952 107.725 216.523 109.295 218.458 109.295C220.392 109.295 221.961 107.725 221.961 105.786C221.961 103.849 220.392 102.281 218.458 102.281Z" fill="#101010"/>
<path d="M261.455 114.118H260.56V115.261H261.455C261.902 115.261 262.169 115.042 262.169 114.689C262.169 114.318 261.902 114.118 261.455 114.118ZM262.036 115.748L263.008 117.111H262.188L261.313 115.861H260.56V117.111H259.874V113.498H261.483C262.321 113.498 262.873 113.928 262.873 114.651C262.873 115.243 262.531 115.605 262.036 115.748ZM261.273 112.296C259.512 112.296 258.18 113.697 258.18 115.414C258.18 117.129 259.503 118.512 261.255 118.512C263.016 118.512 264.35 117.111 264.35 115.394C264.35 113.679 263.026 112.296 261.273 112.296ZM261.255 118.856C259.322 118.856 257.817 117.301 257.817 115.414C257.817 113.526 259.341 111.954 261.273 111.954C263.206 111.954 264.711 113.508 264.711 115.394C264.711 117.282 263.188 118.856 261.255 118.856Z" fill="#101010"/>
</svg>
