<svg width="318" height="240" viewBox="0 0 318 240" fill="none" xmlns="http://www.w3.org/2000/svg">
<path fill-rule="evenodd" clip-rule="evenodd" d="M233.283 121.18C233.283 110.536 228.141 102.138 218.313 102.138C208.444 102.138 202.472 110.536 202.472 121.096C202.472 133.611 209.522 139.93 219.64 139.93C224.574 139.93 228.306 138.808 231.126 137.228V128.913C228.306 130.326 225.072 131.199 220.967 131.199C216.944 131.199 213.378 129.786 212.922 124.88H233.2C233.2 124.339 233.283 122.177 233.283 121.18ZM212.798 117.23C212.798 112.532 215.659 110.578 218.271 110.578C220.801 110.578 223.496 112.532 223.496 117.23H212.798Z" fill="#101010"/>
<path fill-rule="evenodd" clip-rule="evenodd" d="M186.466 102.138C182.402 102.138 179.79 104.05 178.338 105.381L177.799 102.803H168.676V151.28L179.043 149.077L179.085 137.311C180.578 138.392 182.775 139.93 186.424 139.93C193.847 139.93 200.606 133.943 200.606 120.764C200.565 108.707 193.723 102.138 186.466 102.138ZM183.978 130.783C181.531 130.783 180.08 129.91 179.085 128.829L179.043 113.405C180.121 112.199 181.614 111.368 183.978 111.368C187.751 111.368 190.364 115.608 190.364 121.055C190.364 126.626 187.793 130.783 183.978 130.783Z" fill="#101010"/>
<path fill-rule="evenodd" clip-rule="evenodd" d="M154.412 99.6849L164.82 97.4398V89L154.412 91.2035V99.6849Z" fill="#101010"/>
<path d="M164.82 102.845H154.412V139.223H164.82V102.845Z" fill="#101010"/>
<path fill-rule="evenodd" clip-rule="evenodd" d="M143.257 105.921L142.593 102.845H133.636V139.223H144.003V114.569C146.45 111.368 150.597 111.95 151.882 112.407V102.845C150.555 102.346 145.703 101.431 143.257 105.921Z" fill="#101010"/>
<path fill-rule="evenodd" clip-rule="evenodd" d="M122.523 93.8226L112.405 95.9846L112.364 129.287C112.364 135.44 116.967 139.971 123.104 139.971C126.504 139.971 128.992 139.348 130.36 138.599V130.16C129.034 130.7 122.482 132.613 122.482 126.459V111.7H130.36V102.845H122.482L122.523 93.8226Z" fill="#101010"/>
<path fill-rule="evenodd" clip-rule="evenodd" d="M94.4913 113.405C94.4913 111.783 95.8182 111.16 98.016 111.16C101.167 111.16 105.148 112.116 108.3 113.821V104.05C104.858 102.678 101.458 102.138 98.016 102.138C89.5981 102.138 84 106.545 84 113.904C84 125.379 99.7576 123.549 99.7576 128.497C99.7576 130.409 98.0989 131.033 95.7767 131.033C92.3349 131.033 87.9394 129.619 84.4561 127.707V137.602C88.3126 139.265 92.2105 139.972 95.7767 139.972C104.402 139.972 110.332 135.689 110.332 128.247C110.29 115.858 94.4913 118.061 94.4913 113.405Z" fill="#101010"/>
</svg>
