<svg width="318" height="240" viewBox="0 0 318 240" fill="none" xmlns="http://www.w3.org/2000/svg">
<path d="M43 108.069C43.3001 109.22 43.8994 110.269 44.7356 111.107C45.5718 111.945 46.6145 112.541 47.7552 112.833H55.1801L55.5606 112.984V131.945H60.1935V113.012L60.6147 112.86H68.0464C69.1834 112.561 70.2219 111.962 71.0569 111.125C71.8919 110.289 72.4938 109.244 72.8016 108.096V108.048H43V108.069ZM205.092 108.041H200.472V132H221.626C222.628 131.607 223.52 130.972 224.224 130.15C224.927 129.328 225.421 128.344 225.661 127.284H205.078L205.092 108.041ZM169.543 112.757C172.002 112.07 174.067 110.131 174.563 108.027L148.681 108.069V122.197H169.855V127.167H153.239C151.973 127.499 150.79 128.1 149.77 128.93C148.75 129.759 147.916 130.799 147.323 131.979H174.42V117.494H153.253V112.757H169.543ZM248.459 131.986H253.051V122.348H269.749V131.986H274.334V117.535L248.459 117.508V131.986ZM100.98 112.812H118.642C119.799 112.531 120.857 111.933 121.702 111.084C122.546 110.236 123.144 109.169 123.431 108H96.1904C96.4798 109.168 97.0788 110.233 97.9229 111.081C98.7669 111.929 99.8239 112.528 100.98 112.812ZM100.98 122.279H118.642C119.798 121.996 120.856 121.398 121.7 120.549C122.544 119.701 123.143 118.635 123.431 117.467H96.1904C96.4812 118.634 97.0807 119.698 97.9245 120.546C98.7683 121.394 99.8245 121.993 100.98 122.279ZM100.98 132H118.642C119.798 131.717 120.856 131.119 121.7 130.27C122.544 129.422 123.143 128.356 123.431 127.188H96.1904C96.4805 128.355 97.0797 129.42 97.9237 130.268C98.7676 131.116 99.8242 131.715 100.98 132ZM252.542 112.826H270.204C271.362 112.545 272.422 111.947 273.267 111.099C274.113 110.25 274.712 109.183 275 108.014H247.753C248.041 109.182 248.639 110.248 249.483 111.096C250.328 111.945 251.385 112.543 252.542 112.826Z" fill="#101010"/>
</svg>
