<svg width="1610" height="971" viewBox="0 0 1610 971" fill="none" xmlns="http://www.w3.org/2000/svg">
<path fill-rule="evenodd" clip-rule="evenodd" d="M1144.07 12.4531C978.773 -36.2188 805.318 58.3237 756.646 223.62L685.465 465.358C680.471 482.319 661.595 492.021 644.722 486.735C643.339 486.301 641.948 485.879 640.552 485.467C509.395 446.848 371.765 521.864 333.146 653.02C294.526 784.176 369.542 921.807 500.698 960.426C592.049 987.324 686.54 959.097 748.53 895.169C784.969 857.592 846.419 837.996 896.631 852.781L1138.37 923.962C1303.67 972.633 1477.12 878.091 1525.79 712.795L1596.97 471.057C1645.65 305.761 1551.1 132.306 1385.81 83.6338L1144.07 12.4531Z" fill="#FEBC0A" fill-opacity="0.7"/>
<path fill-rule="evenodd" clip-rule="evenodd" d="M448.63 401.172C444.297 396.101 443.919 388.534 448.22 383.436C520.864 297.341 541.593 195.213 491.983 137.159C433.14 68.3022 297.625 87.525 189.301 180.095C80.9766 272.664 40.8641 403.527 99.7068 472.384C104.04 477.455 104.419 485.022 100.117 490.12C27.4729 576.215 6.74373 678.343 56.3542 736.397C115.197 805.254 250.712 786.031 359.036 693.461C467.361 600.892 507.473 470.029 448.63 401.172Z" fill="#FEBC0A" fill-opacity="0.7"/>
</svg>
